OpenSim_Sub05_CSStiffKnee_LCS.mot
version=1
nRows=65
nColumns=11
inDegrees=no
endheader
time	Bot_Shank	2nd_Bot_Shank	2nd_Top_Shank	Top_Shank	Bot_Thigh	Med_Thigh	Top_Thigh	BNOx	BNOy	BNOZ
0	11648.06210603	11647.10799142	12064.04386247	11647.08386383	12642.48202283	12187.47191962	11681.30909117	22.07706354	-84.68980345	-4.25001126
0.01000000	11648.00564430	11647.00812389	12064.00489390	11647.94242517	12642.94288880	12188.85844309	11681.93852320	22.06111921	-84.68979305	-4.24995327
0.02000000	11647.95063103	11646.94314022	12063.94875763	11648.27734137	12643.60279952	12190.28947052	11682.53736273	22.05392831	-84.69356218	-4.25085268
0.03000000	11647.90167487	11646.91002136	12063.88410634	11648.14862849	12644.42750233	12191.73473345	11683.09442303	22.05449335	-84.70046049	-4.25242632
0.04000000	11647.86332173	11646.90196152	12063.82281941	11647.67044895	12645.36523813	12193.16243586	11683.59965093	22.06100357	-84.70945680	-4.25421888
0.05000000	11647.84011748	11646.91215208	12063.77677865	11646.95700598	12646.36423464	12194.54078062	11684.04299414	22.07164760	-84.71951963	-4.25577492
0.06000000	11647.83660799	11646.93378441	12063.75786590	11646.12250281	12647.37271958	12195.83797056	11684.41440035	22.08461406	-84.72961750	-4.25663900
0.07000000	11647.85733912	11646.96004987	12063.77796295	11645.28114267	12648.33892066	12197.02220853	11684.70381728	22.09809158	-84.73871893	-4.25635570
0.08000000	11647.90685674	11646.98413984	12063.84895165	11644.54712879	12649.21106561	12198.06169739	11684.90119260	22.11026880	-84.74579245	-4.25446957
0.09000000	11647.98970671	11646.99924568	12063.98271380	11644.03466439	12649.93738214	12198.92463998	11684.99647403	22.11933433	-84.74980657	-4.25052518
0.10000000	11648.10836564	11647.00005991	12064.18706764	11643.83628337	12650.47603314	12199.58569973	11684.98564871	22.12385649	-84.74994114	-4.24430030
0.11000000	11648.25411805	11646.98939451	12064.44785242	11643.92731489	12650.83891864	12200.05448402	11684.89736976	22.12445726	-84.74651898	-4.23683409
0.12000000	11648.41448179	11646.97279400	12064.74351044	11644.24364338	12651.05602367	12200.35236042	11684.77128392	22.12244977	-84.74024761	-4.22959023
0.13000000	11648.57697187	11646.95580497	12065.05247842	11644.72112353	12651.15734690	12200.50070540	11684.64704621	22.11914766	-84.73183479	-4.22403272
0.14000000	11648.72910331	11646.94397399	12065.35319309	11645.29561006	12651.17288699	12200.52089539	11684.56431165	22.11586458	-84.72198833	-4.22162555
0.15000000	11648.85839111	11646.94284767	12065.62409119	11645.90295765	12651.13264261	12200.43430687	11684.56273525	22.11391419	-84.71141600	-4.22383271
0.16000000	11648.95235029	11646.95797258	12065.84360943	11646.47902101	12651.06661241	12200.26231626	11684.68197204	22.11461012	-84.70082559	-4.23211820
0.17000000	11648.99849586	11646.99489530	12065.99018455	11646.95965484	12651.00479508	12200.02630004	11684.96167703	22.11926603	-84.69092489	-4.24794603
0.18000000	11648.98727930	11647.05779586	12066.04641838	11647.29053100	12650.97204165	12199.74688133	11685.43193611	22.12891509	-84.68234232	-4.27220538
0.19000000	11648.92503473	11647.14346279	12066.01744094	11647.47042024	12650.96536090	12199.44060880	11686.07107782	22.14307340	-84.67527706	-4.30267655
0.20000000	11648.82344151	11647.24619704	12065.91596402	11647.51596353	12650.97239137	12199.12265985	11686.84001197	22.16074653	-84.66978381	-4.33609353
0.21000000	11648.69418304	11647.36029771	12065.75470510	11647.44381529	12650.98076456	12198.80821084	11687.69963527	22.18093963	-84.66591719	-4.36918953
0.22000000	11648.54894271	11647.48006388	12065.54638169	11647.27062994	12650.97811198	12198.51243815	11688.61084440	22.20265788	-84.66373178	-4.39869776
0.23000000	11648.39940392	11647.59979463	12065.30371127	11647.01306191	12650.95206511	12198.25051815	11689.53453608	22.22490645	-84.66328219	-4.42135141
0.24000000	11648.25725005	11647.71378905	12065.03941135	11646.68776563	12650.89025545	12198.03762720	11690.43160699	22.24669050	-84.66462302	-4.43388369
0.25000000	11648.13416450	11647.81634623	12064.76619941	11646.31139550	12650.78031449	12197.88894169	11691.26295382	22.26701521	-84.66780887	-4.43302781
0.26000000	11648.04183066	11647.90176526	12064.49679295	11645.90060598	12650.60987373	12197.81963797	11691.98947328	22.28488574	-84.67289434	-4.41551698
0.27000000	11647.99193193	11647.96434522	12064.24390947	11645.47205146	12650.36656467	12197.84489242	11692.57206207	22.29930726	-84.67993404	-4.37808439
0.28000000	11647.99615170	11647.99838519	12064.02026645	11645.04238639	12650.03801880	12197.97988141	11692.97161687	22.30928494	-84.68898256	-4.31746326
0.29000000	11648.06346595	11648.00004068	12063.83692233	11644.62796929	12649.61686463	12198.24129352	11693.17243066	22.31405283	-84.69998128	-4.23231369
0.30000000	11648.18820690	11647.97550818	12063.69596192	11644.24355827	12649.12275845	12198.65399650	11693.28534170	22.31408291	-84.71225913	-4.13171808
0.31000000	11648.35977848	11647.93436340	12063.59645006	11643.90337280	12648.58445262	12199.24561082	11693.46377653	22.31026380	-84.72493894	-4.02826634
0.32000000	11648.56758088	11647.88618463	12063.53744927	11643.62163198	12648.03070636	12200.04375897	11693.86119380	22.30348443	-84.73714337	-3.93455105
0.33000000	11648.80101432	11647.84055012	12063.51802211	11643.41255488	12647.49027889	12201.07606347	11694.63105213	22.29463372	-84.74799510	-3.86316481
0.34000000	11649.04947899	11647.80703816	12063.53723110	11643.29036059	12646.99192942	12202.37014685	11695.92681017	22.28460060	-84.75661680	-3.82670018
0.35000000	11649.30237510	11647.79522702	12063.59413879	11643.26926817	12646.56441718	12203.95363161	11697.90192656	22.27427400	-84.76213113	-3.83774974
0.36000000	11649.54910287	11647.81469496	12063.68780771	11643.36349672	12646.23650138	12205.85414027	11700.70985992	22.26454285	-84.76366076	-3.90890607
0.37000000	11649.77906249	11647.87502026	12063.81730042	11643.58726532	12646.03694124	12208.09929534	11704.50406890	22.25629607	-84.76032837	-4.05276175
0.38000000	11649.98165416	11647.98578118	12063.98167944	11643.95479304	12645.99449598	12210.71671934	11709.43801214	22.25042259	-84.75125662	-4.28190937
0.39000000	11650.14511784	11648.15254478	12064.17809351	11644.47103302	12646.15378392	12213.71144683	11715.54279851	22.24722751	-84.73578153	-4.59260690
0.40000000	11650.25141784	11648.35918218	12064.39333992	11645.09082090	12646.64520179	12216.96633910	11722.18777412	22.24385807	-84.71439308	-4.89276218
0.41000000	11650.28040648	11648.58226285	12064.61073226	11645.75212553	12647.62801467	12220.32314054	11728.51957158	22.23639876	-84.68796962	-5.06054914
0.42000000	11650.21193446	11648.79835079	12064.81358150	11646.39290300	12649.26150941	12223.62356455	11733.68465568	22.22093328	-84.65738978	-4.97411932
0.43000000	11650.02585249	11648.98400995	12064.98519859	11646.95110945	12651.70497284	12226.70932455	11736.82949122	22.19354531	-84.62353221	-4.51162426
0.44000000	11649.71253093	11649.11940981	12065.11150996	11647.37505265	12655.07255655	12229.42409587	11737.25603836	22.15159712	-84.58677264	-3.59950386
0.45000000	11649.31923862	11649.20422116	12065.19258862	11647.66903025	12659.23428559	12231.62216542	11735.10729739	22.09936647	-84.54476688	-2.42537911
0.46000000	11648.91239335	11649.24467785	12065.23326849	11647.85618305	12663.97802522	12233.16139143	11730.80931713	22.04345849	-84.49425532	-1.26477042
0.47000000	11648.55842733	11649.24701870	12065.23838713	11647.95966605	12669.09157882	12233.89963480	11724.78835967	21.99048008	-84.43197765	-0.39326441
0.48000000	11648.32377277	11649.21748253	12065.21278206	11648.00263425	12674.36274973	12233.69475644	11717.47068712	21.94703813	-84.35467358	-0.08644773
0.49000000	11648.27486188	11649.16230814	12065.16129083	11648.00824264	12679.57934133	12232.40461725	11709.28256159	21.91973954	-84.25908282	-0.61990701
0.50000000	11648.47812689	11649.08773436	12065.08875096	11647.99964622	12684.52915696	12229.88707813	11700.65024518	21.91519120	-84.14194505	-2.26922889
0.51000000	11649	11649	12065	11648	12689.00000000	12226.00000000	11692.00000000	21.94000000	-84.00000000	-5.31000000
0.52000000	11649.88444421	11648.90555090	12064.89959535	11648.02785803	12692.79585210	12220.66643346	11683.70761699	21.99790967	-83.83144454	-9.92182877
0.53000000	11651.08554567	11648.81166107	12064.79097393	11648.08337060	12695.78540809	12214.07018791	11675.94700246	22.08121125	-83.64030426	-15.90041079
0.54000000	11652.53492128	11648.72581152	12064.67729252	11648.16208705	12697.85354111	12206.46026246	11668.84159156	22.17933263	-83.43206196	-22.94546344
0.55000000	11654.16418797	11648.65548330	12064.56170789	11648.25955674	12698.88512430	12198.08565623	11662.51481943	22.28170168	-83.21220040	-30.75670413
0.56000000	11655.90496266	11648.60815743	12064.44737684	11648.37132900	12698.76503079	12189.19536831	11657.09012122	22.37774627	-82.98620238	-39.03385023
0.57000000	11657.68886227	11648.59131494	12064.33745614	11648.49295319	12697.37813372	12180.03839782	11652.69093208	22.45689429	-82.75955067	-47.47661912
0.58000000	11659.44750372	11648.61243686	12064.23510258	11648.61997864	12694.60930622	12170.86374386	11649.44068715	22.50857361	-82.53772805	-55.78472820
0.59000000	11661.11250393	11648.67900423	12064.14347294	11648.74795472	12690.34342143	12161.92040554	11647.46282159	22.52221211	-82.32621729	-63.65789485
0.60000000	11662.61547982	11648.79849808	12064.06572400	11648.87243076	12684.46535247	12153.45738197	11646.88077055	22.48723767	-82.13050119	-70.79583646
0.61000000	11663.88804831	11648.97839943	12064.00501255	11648.98895610	12676.85997249	12145.72367224	11647.81796915	22.39307816	-81.95606252	-76.89827041
0.62000000	11664.87725865	11649.22240940	12063.96374857	11649.09317559	12667.50898302	12138.94454534	11650.32226989	22.23365124	-81.80631197	-81.72016199
0.63000000	11665.61363019	11649.51378430	12063.94030280	11649.18125046	12656.91780904	12133.21691906	11654.03271521	22.02715882	-81.67345279	-85.31530023
0.64000000	11666.15577377	11649.82889986	12063.93168657	11649.24951579	12645.76813244	12128.59451522	11658.45076429	21.79997557	-81.54591638	-87.83804201
